<svg width="59" height="56" xmlns="http://www.w3.org/2000/svg" xml:space="preserve" version="1.1">
 <defs>
  <linearGradient y2="0.95903" x2="0.95903" y1="0.04097" x1="0.04097" id="svg_2_00000043442590260727270070000016472210641679865270_">
   <stop stop-color="#5E72E4" offset="0"/>
   <stop stop-color="#778AFF" offset="1"/>
  </linearGradient>
  <linearGradient y2="-Infinity" x2="Infinity" y1="-Infinity" x1="Infinity" id="svg_3_00000010280352489557108120000000938545297310085033_">
   <stop stop-color="#5E72E4" offset="0"/>
   <stop stop-color="#778AFF" offset="1"/>
  </linearGradient>
 </defs>
 <g>
  <title>Layer 1</title>
  <g stroke="null" id="svg_5">
   <g stroke="null" id="svg_1">
    <path stroke="null" fill="url(#svg_2_00000043442590260727270070000016472210641679865270_)" clip-rule="evenodd" fill-rule="evenodd" d="m8.14161,-2.2l41.91677,0c4.49271,0 8.14161,3.6489 8.14161,8.14161l0,41.91677c0,4.49271 -3.6489,8.14161 -8.14161,8.14161l-41.91677,0c-4.49271,0 -8.14161,-3.6489 -8.14161,-8.14161l0,-41.91677c0,-4.49271 3.6489,-8.14161 8.14161,-8.14161z" id="svg_2"/>
    <path stroke="null" fill="url(#svg_3_00000010280352489557108120000000938545297310085033_)" clip-rule="evenodd" fill-rule="evenodd" d="m0,-2.2" id="svg_3"/>
   </g>
   <path stroke="null" fill="#FFFFFF" d="m29.1,8.10815c-10.65023,0 -19.24796,8.62053 -19.24796,19.24796c0,7.34342 4.12782,13.729 10.17132,16.9674c1.55078,0.84381 3.48926,-0.04561 3.92257,-1.75603l0.98064,-4.01379c0.34208,-1.41395 -0.22806,-2.87351 -1.39114,-3.74013c-2.28056,-1.68762 -3.74013,-4.40149 -3.74013,-7.45744c0,-5.13127 4.17343,-9.2819 9.2819,-9.2819c5.13127,0 9.2819,4.17343 9.2819,9.2819c0,3.05596 -1.45956,5.74702 -3.74013,7.45744c-1.16309,0.86661 -1.73323,2.32618 -1.39114,3.76293l1.00345,4.01379c0.43331,1.71042 2.34898,2.59984 3.92257,1.75603c6.0663,-3.2384 10.17132,-9.62398 10.17132,-16.9902c0.04561,-10.60462 -8.59773,-19.24796 -19.22516,-19.24796l0,0z" class="st2" id="svg_4"/>
  </g>
  <circle id="svg_6" fill="#FFFFFF" r="18.3" cy="131.6" cx="128.3" class="st2"/>
 </g>
</svg>